<?xml version="1.0" encoding="UTF-8" standalone="no" ?>
<!DOCTYPE svg PUBLIC "-//W3C//DTD SVG 1.1//EN" "http://www.w3.org/Graphics/SVG/1.1/DTD/svg11.dtd">
<svg xmlns="http://www.w3.org/2000/svg" xmlns:xlink="http://www.w3.org/1999/xlink" version="1.1" width="1280" height="1024" viewBox="0 0 1280 1024" xml:space="preserve">
<desc>Created with Fabric.js 5.3.0</desc>
<defs>
</defs>
<g transform="matrix(1 0 0 1 640 512)" id="background-logo"  >
<rect style="stroke: none; stroke-width: 0; stroke-dasharray: none; stroke-linecap: butt; stroke-dashoffset: 0; stroke-linejoin: miter; stroke-miterlimit: 4; fill: rgb(255,255,255); fill-opacity: 0; fill-rule: nonzero; opacity: 1;"  paint-order="stroke"  x="-640" y="-512" rx="0" ry="0" width="1280" height="1024" />
</g>
<g transform="matrix(2.5302565845328613 0 0 2.5302565845328613 640.026829277104 399.3704265770565)" id="logo-logo"  >
<g style=""  paint-order="stroke"   >
		<g transform="matrix(0.22607895316665946 0 0 0.22607895316665946 0 -8.421441005458064)"  >
<linearGradient id="SVGID_18_230279" gradientUnits="userSpaceOnUse" gradientTransform="matrix(1 0 0 1 0 0)"  x1="546.47" y1="464.745" x2="1373.53" y2="464.745">
<stop offset="0%" style="stop-color:rgb(198,236,251);stop-opacity: 1"/>
<stop offset="100%" style="stop-color:rgb(6,63,86);stop-opacity: 1"/>
</linearGradient>
<path style="stroke: none; stroke-width: 1; stroke-dasharray: none; stroke-linecap: butt; stroke-dashoffset: 0; stroke-linejoin: miter; stroke-miterlimit: 4; fill: url(#SVGID_18_230279); fill-rule: nonzero; opacity: 1;"  paint-order="stroke"  transform=" translate(-960.0000000000001, -464.8)" d="M 960 126.5 C 732 126.5 546.5 312 546.5 540 C 546.5 629.5 576.2 718.1 630.2 789.5 L 640.4000000000001 803 L 960 654 L 1275.2 801 L 1279.6000000000001 803.1 L 1289.8000000000002 789.6 C 1343.8000000000002 718.3000000000001 1373.5000000000002 629.7 1373.5000000000002 540.1 C 1373.5 312 1188 126.5 960 126.5 z M 1273.1 776.8 L 960 630.9 L 647 776.8 C 595.6 708.9 567.5 625.5 567.5 540 C 567.5 323.6 743.6 147.5 960 147.5 C 1176.4 147.5 1352.5 323.6 1352.5 540 C 1352.5 625.5 1324.4 708.9 1273.1 776.8 z" stroke-linecap="round" />
</g>
		<g transform="matrix(0.22607895316665946 0 0 0.22607895316665946 0 0)"  >
<linearGradient id="SVGID_19_230280" gradientUnits="userSpaceOnUse" gradientTransform="matrix(1 0 0 1 0 0)"  x1="519.47" y1="502.015" x2="1400.53" y2="502.015">
<stop offset="0%" style="stop-color:rgb(6,63,86);stop-opacity: 1"/>
<stop offset="100%" style="stop-color:rgb(198,236,251);stop-opacity: 1"/>
</linearGradient>
<path style="stroke: none; stroke-width: 1; stroke-dasharray: none; stroke-linecap: butt; stroke-dashoffset: 0; stroke-linejoin: miter; stroke-miterlimit: 4; fill: url(#SVGID_19_230280); fill-rule: nonzero; opacity: 1;"  paint-order="stroke"  transform=" translate(-960, -502.05)" d="M 1365.9 368.5 C 1343.7 316 1311.9 268.9 1271.5 228.5 C 1231.1 188 1183.9 156.3 1131.5 134.1 C 1077.2 111.1 1019.5 99.5 960 99.5 C 900.5 99.5 842.8 111.2 788.5 134.1 C 736 156.29999999999998 688.9 188.1 648.5 228.5 C 608 268.9 576.3 316 554.1 368.5 C 531.1 422.8 519.5 480.5 519.5 540 C 519.5 592.4 528.6 643.8 546.6 692.5 C 564 739.6 589.2 783.2 621.5 821.9 C 621.5 821.9 954.3 681.2 960 683.8 C 960.1 683.8 960.2 683.9 960.3 683.9 C 973.4 689.6 1298.5 821.9 1298.5 821.9 C 1330.8 783.1999999999999 1356 739.6 1373.4 692.5 C 1391.4 643.7 1400.5 592.4 1400.5 540 C 1400.5 480.5 1388.9 422.8 1365.9 368.5 z M 1285 785.9 L 1277.7 795.6 L 960 647.4 L 642.3 795.5 L 635 785.8 C 581.8 715.5 552.5 628.1999999999999 552.5 539.9 C 552.5 315.2 735.3 132.39999999999998 960 132.39999999999998 C 1184.7 132.39999999999998 1367.5 315.2 1367.5 539.9 C 1367.5 628.2 1338.2 715.6 1285 785.9 z M 883.8 848.9 L 939.5 848.9 L 939.5 904.6 L 883.8 904.6 L 883.8 848.9 z M 1036.2 848.9 L 1036.2 904.6 L 980.5 904.6 L 980.5 848.9 L 1036.2 848.9 z M 883.8 752.2 L 939.5 752.2 L 939.5 807.9000000000001 L 883.8 807.9000000000001 L 883.8 752.2 z M 1036.2 752.2 L 1036.2 807.9000000000001 L 980.5 807.9000000000001 L 980.5 752.2 L 1036.2 752.2 z" stroke-linecap="round" />
</g>
		<g transform="matrix(0.22607895316665946 0 0 0.22607895316665946 -39.51855027142659 7.437997559183117)"  >
<linearGradient id="SVGID_20_230281" gradientUnits="userSpaceOnUse" gradientTransform="matrix(1 0 0 1 0 0)"  x1="604.9027" y1="534.98" x2="965.4921" y2="534.98">
<stop offset="0%" style="stop-color:rgb(12,126,172);stop-opacity: 1"/>
<stop offset="100%" style="stop-color:rgb(198,236,251);stop-opacity: 1"/>
</linearGradient>
<path style="stroke: none; stroke-width: 1; stroke-dasharray: none; stroke-linecap: butt; stroke-dashoffset: 0; stroke-linejoin: miter; stroke-miterlimit: 4; fill: url(#SVGID_20_230281); fill-rule: nonzero; opacity: 1;"  paint-order="stroke"  transform=" translate(-785.200224444181, -534.95)" d="M 960 432.9 C 966.3 460 968.3 484.4 960 502.09999999999997 L 635.5 760.8 L 614.9 756.6999999999999 L 960 432.9 z M 604.9 739.9 L 625.6 745.6 L 960 378.3 C 967.9 353.5 966.6 324.5 960 293.1 L 604.9 739.9 z M 623.8 770.3 L 646.9 776.8 L 959.9 598.6999999999999 C 968.3 583.9 966 563.5999999999999 959.9 541.3 L 623.8 770.3 z" stroke-linecap="round" />
</g>
		<g transform="matrix(0.22607895316665946 0 0 0.22607895316665946 40.253357611323736 7.426693611524769)"  >
<linearGradient id="SVGID_21_230282" gradientUnits="userSpaceOnUse" gradientTransform="matrix(1 0 0 1 0 0)"  x1="960" y1="534.98" x2="1315.0957" y2="534.98">
<stop offset="0%" style="stop-color:rgb(12,126,172);stop-opacity: 1"/>
<stop offset="100%" style="stop-color:rgb(198,236,251);stop-opacity: 1"/>
</linearGradient>
<path style="stroke: none; stroke-width: 1; stroke-dasharray: none; stroke-linecap: butt; stroke-dashoffset: 0; stroke-linejoin: miter; stroke-miterlimit: 4; fill: url(#SVGID_21_230282); fill-rule: nonzero; opacity: 1;"  paint-order="stroke"  transform=" translate(-1137.5500000000002, -535)" d="M 1296.2 770.3 L 1273.1000000000001 776.8 L 960 598.7 L 960 541.3000000000001 L 1296.2 770.3 z M 960 432.9 L 960 502.09999999999997 L 1284.5 760.8 L 1305.1 756.6999999999999 L 960 432.9 z M 960 293.2 L 960 378.4 L 1294.4 745.5999999999999 L 1315.1000000000001 739.8999999999999 L 960 293.2 z" stroke-linecap="round" />
</g>
</g>
</g>
<g transform="matrix(1.9211538461538462 0 0 1.9211538461538462 644.5544729885427 695.7842650428591)" id="text-logo"  >
<g style=""  paint-order="stroke"   >
		<g transform="matrix(1 0 0 1 0 0)" id="text-logo-path-0"  >
<path style="stroke: none; stroke-width: 0; stroke-dasharray: none; stroke-linecap: butt; stroke-dashoffset: 0; stroke-linejoin: miter; stroke-miterlimit: 4; fill: rgb(179,230,250); fill-rule: nonzero; opacity: 1;"  paint-order="stroke"  transform=" translate(-173.345, 29.235000000000003)" d="M 1.44 -47.74 L 1.44 -46.02 C 4.36 -45.91 5.8 -45.25 5.98 -43.56 C 6.36 -39.97 6.54 -33.61 6.54 -24.47 C 6.54 -14.38 6.36 -7.56 5.98 -3.97 C 5.8 -2.39 4.29 -1.58 1.51 -1.51 L 1.51 0.21 C 3.09 0.07 5.77 0 9.49 0 C 13.25 0 15.93 0.07 17.58 0.21 L 17.58 -1.51 C 14.66 -1.62 13.22 -2.29 13.04 -3.97 C 12.66 -7.8 12.45 -14.63 12.45 -24.47 C 12.45 -32.38 12.59 -39.2 12.83 -44.93 C 14.48 -45.21 16.14 -45.35 17.72 -45.35 C 20.64 -45.35 22.99 -44.51 24.86 -42.86 C 26.72 -41.17 27.63 -38.95 27.63 -36.21 C 27.63 -32.45 26.44 -29.67 24.47 -28.13 C 22.5 -26.58 20.5 -25.88 18.07 -25.56 L 15.26 -25.21 L 14.98 -24.93 L 15.61 -23.27 C 17.82 -19.97 20.29 -16.1 22.92 -11.67 C 25.56 -7.24 27.77 -3.34 29.53 0 C 34.42 0 38.21 0.07 40.96 0.21 L 40.96 -1.58 C 39.34 -1.83 37.93 -2.39 36.77 -3.3 C 35.61 -4.18 34.14 -5.98 32.41 -8.65 L 22.46 -23.84 C 25.31 -24.54 27.91 -25.77 30.45 -27.77 C 32.98 -29.74 34.63 -32.94 34.63 -36.63 C 34.63 -39.3 33.93 -41.55 32.55 -43.38 C 29.74 -47 25.17 -48.52 19.3 -48.52 C 17.93 -48.52 15.89 -48.34 13.18 -48.02 C 10.69 -47.71 8.51 -47.53 6.61 -47.53 C 4.82 -47.53 3.09 -47.6 1.44 -47.74 Z M 52.74 -23.48 C 52.74 -17.16 54.46 -11.64 57.34 -7.73 C 61.7 -1.83 68.52 1.3 76.19 1.3 C 83.08 1.3 89.27 -1.37 93.59 -5.87 C 97.91 -10.34 100.55 -16.98 100.55 -24.47 C 100.55 -30.8 98.86 -36.32 95.95 -40.22 C 91.52 -46.13 84.8 -49.25 77.07 -49.25 C 72.46 -49.25 68.35 -48.16 64.66 -46.02 C 60.96 -43.88 58.05 -40.82 55.94 -36.88 C 53.79 -32.94 52.74 -28.48 52.74 -23.48 Z M 60.16 -23.98 C 60.16 -30.9 61.6 -36.28 64.45 -40.11 C 67.29 -43.91 71.3 -45.81 76.47 -45.81 C 81.67 -45.81 85.75 -43.8 88.7 -39.83 C 91.66 -35.82 93.13 -30.55 93.13 -23.98 C 93.13 -17.05 91.69 -11.67 88.84 -7.88 C 85.96 -4.04 81.95 -2.14 76.78 -2.14 C 71.58 -2.14 67.5 -4.15 64.59 -8.16 C 61.63 -12.13 60.16 -17.4 60.16 -23.98 Z M 69.47 -54.21 L 69.47 -54.21 C 70.07 -53.61 70.84 -53.3 71.79 -53.3 C 72.74 -53.3 73.55 -53.61 74.15 -54.21 C 74.75 -54.81 75.06 -55.58 75.06 -56.53 C 75.06 -57.48 74.75 -58.29 74.15 -58.89 C 73.55 -59.48 72.74 -59.77 71.79 -59.77 C 70.84 -59.77 70.07 -59.48 69.47 -58.89 C 68.87 -58.29 68.56 -57.48 68.56 -56.53 C 68.56 -55.58 68.87 -54.81 69.47 -54.21 Z M 79.56 -54.21 L 79.56 -54.21 C 80.16 -53.61 80.93 -53.3 81.88 -53.3 C 82.83 -53.3 83.64 -53.61 84.24 -54.21 C 84.84 -54.81 85.12 -55.58 85.12 -56.53 C 85.12 -57.48 84.84 -58.29 84.24 -58.89 C 83.64 -59.48 82.83 -59.77 81.88 -59.77 C 80.93 -59.77 80.16 -59.48 79.56 -58.89 C 78.96 -58.29 78.65 -57.48 78.65 -56.53 C 78.65 -55.58 78.96 -54.81 79.56 -54.21 Z M 114.86 -1.51 L 114.86 0.21 C 116.41 0.07 118.48 0 121.12 0 C 124.11 0 126.22 0.07 127.52 0.21 L 127.52 -1.51 C 124.57 -1.55 123.44 -2.46 123.44 -4.25 C 123.65 -14.41 124.39 -24.15 125.66 -33.4 C 132.02 -22.18 137.22 -11.85 141.19 -2.32 L 143.3 -2.46 C 147.42 -10.72 150.65 -16.88 152.97 -20.85 C 155.26 -24.82 158.1 -29.25 161.44 -34.07 C 161.94 -29.53 162.29 -24.29 162.46 -18.35 C 162.64 -12.34 162.64 -7.66 162.46 -4.25 C 162.39 -2.5 161.06 -1.58 158.42 -1.51 L 158.42 0.21 C 159.97 0.07 162.57 0 166.19 0 C 170.13 0 172.91 0.07 174.49 0.21 L 174.49 -1.51 C 171.57 -1.62 169.64 -2.5 169.5 -4.18 C 168.9 -10.76 168.48 -17.93 168.23 -25.73 C 168.12 -29.46 168.05 -33.19 168.05 -36.88 C 168.05 -40.96 168.12 -45.04 168.27 -49.11 L 165.56 -49.11 C 159.72 -38.6 155.36 -30.94 152.48 -26.12 C 149.6 -21.3 146.71 -16.77 143.8 -12.59 C 135.43 -28.09 129.45 -40.29 125.87 -49.11 L 123.34 -48.97 C 122.88 -34.88 121.75 -20.11 119.96 -4.75 C 119.75 -2.67 118.06 -1.58 114.86 -1.51 Z M 188.13 -47.74 L 188.13 -46.02 C 191.05 -45.91 192.49 -45.25 192.67 -43.56 C 193.05 -39.97 193.23 -33.61 193.23 -24.47 C 193.23 -14.38 193.05 -7.56 192.67 -3.97 C 192.49 -2.39 190.98 -1.58 188.2 -1.51 L 188.2 0.21 C 189.75 0.07 192.42 0 196.18 0 C 207.33 0 215.31 0.04 220.16 0.07 C 220.23 -2.25 220.55 -4.89 221.11 -7.84 L 218.51 -7.7 C 217.49 -4.61 216.4 -3.52 214.57 -3.23 C 212.92 -2.95 210.39 -2.81 207.01 -2.81 C 204.23 -2.81 202.26 -3.3 201.18 -4.25 C 200.68 -4.71 200.33 -5.31 200.09 -6.05 C 199.63 -7.45 199.17 -12.59 199.14 -22.96 C 200.19 -23.06 201.74 -23.1 203.74 -23.1 C 206.59 -23.1 208.42 -22.99 209.23 -22.75 C 210.03 -22.5 210.6 -21.97 210.88 -21.16 C 211.05 -20.6 211.16 -19.83 211.16 -18.81 C 211.16 -18.35 211.12 -17.89 211.09 -17.37 L 213.62 -17.37 C 213.8 -20.78 214.22 -25.21 214.85 -30.66 L 212.32 -30.66 C 212 -27.88 211.02 -26.72 209.3 -26.19 C 208.49 -25.95 206.66 -25.84 203.74 -25.84 C 201.74 -25.84 200.19 -25.88 199.14 -25.98 C 199.14 -33.12 199.28 -39.3 199.52 -44.58 C 202.79 -44.68 204.94 -44.72 205.92 -44.72 C 208.49 -44.72 210.84 -44.54 213.06 -44.19 C 214.01 -44.02 214.64 -43.56 214.96 -42.75 C 215.13 -42.33 215.24 -41.77 215.2 -41.06 C 215.2 -40.43 215.13 -39.69 214.99 -38.81 L 217.52 -38.95 C 217.87 -42.15 218.4 -45.18 219.1 -48.02 C 211.76 -47.71 204.13 -47.53 196.18 -47.53 C 192.46 -47.53 189.78 -47.6 188.13 -47.74 Z M 235.98 -1.51 L 235.98 0.21 C 237.57 0.07 239.78 0 242.59 0 C 245.79 0 248.01 0.07 249.31 0.21 L 249.31 -1.51 C 246.32 -1.58 244.74 -2.39 244.63 -3.97 C 244.32 -8.37 244.17 -15.19 244.17 -24.47 L 244.17 -28.37 C 244.17 -31.36 244.07 -34.03 243.89 -36.35 C 248.6 -31.71 253.49 -26.47 258.52 -20.67 C 267.06 -10.93 273.11 -3.69 276.59 1.09 L 279.12 0.95 C 278.87 -4.82 278.77 -13.29 278.77 -24.47 C 278.77 -33.15 278.91 -39.52 279.19 -43.56 C 279.3 -45.14 280.84 -45.95 283.8 -46.02 L 283.8 -47.74 C 282.57 -47.6 280.35 -47.53 277.15 -47.53 C 274.34 -47.53 272.12 -47.6 270.47 -47.74 L 270.47 -46.02 C 273.46 -45.95 275.04 -45.14 275.15 -43.56 C 275.43 -39.52 275.57 -33.15 275.57 -24.47 L 275.57 -19.23 C 275.57 -16.42 275.67 -13.68 275.89 -11 C 271.91 -15.15 267.1 -20.46 261.4 -26.93 C 252.54 -36.95 246.39 -44.3 242.91 -49.04 L 240.24 -48.9 C 240.76 -40.39 241.01 -32.24 241.01 -24.47 C 241.01 -14.87 240.87 -8.02 240.59 -3.97 C 240.48 -2.39 238.94 -1.58 235.98 -1.51 Z M 297.44 -1.51 L 297.44 0.21 C 299.02 0.07 301.24 0 304.05 0 C 307.25 0 309.46 0.07 310.76 0.21 L 310.76 -1.51 C 307.78 -1.58 306.19 -2.39 306.09 -3.97 C 305.77 -8.37 305.63 -15.19 305.63 -24.47 L 305.63 -28.37 C 305.63 -31.36 305.53 -34.03 305.35 -36.35 C 310.06 -31.71 314.95 -26.47 319.98 -20.67 C 328.52 -10.93 334.57 -3.69 338.05 1.09 L 340.58 0.95 C 340.33 -4.82 340.23 -13.29 340.23 -24.47 C 340.23 -33.15 340.37 -39.52 340.65 -43.56 C 340.75 -45.14 342.3 -45.95 345.25 -46.02 L 345.25 -47.74 C 344.02 -47.6 341.81 -47.53 338.61 -47.53 C 335.8 -47.53 333.58 -47.6 331.93 -47.74 L 331.93 -46.02 C 334.92 -45.95 336.5 -45.14 336.6 -43.56 C 336.89 -39.52 337.03 -33.15 337.03 -24.47 L 337.03 -19.23 C 337.03 -16.42 337.13 -13.68 337.34 -11 C 333.37 -15.15 328.55 -20.46 322.86 -26.93 C 314 -36.95 307.85 -44.3 304.37 -49.04 L 301.69 -48.9 C 302.22 -40.39 302.47 -32.24 302.47 -24.47 C 302.47 -14.87 302.33 -8.02 302.05 -3.97 C 301.94 -2.39 300.39 -1.58 297.44 -1.51 Z" stroke-linecap="round" />
</g>
</g>
</g>
<g transform="matrix(1.9211538461538462 0 0 1.9211538461538462 640.9171796453656 819.6137991250228)" id="tagline-4893323f-98a4-4f49-9c8d-bcd836fb930a-logo"  >
<g style=""  paint-order="stroke"   >
		<g transform="matrix(1 0 0 1 5.684342e-14 0)" id="tagline-4893323f-98a4-4f49-9c8d-bcd836fb930a-logo-path-0"  >
<path style="stroke: none; stroke-width: 0; stroke-dasharray: none; stroke-linecap: butt; stroke-dashoffset: 0; stroke-linejoin: miter; stroke-miterlimit: 4; fill: rgb(69,193,242); fill-rule: nonzero; opacity: 1;"  paint-order="stroke"  transform=" translate(-307.665, 10.56)" d="M 1.86 -10.57 L 1.86 -10.57 Q 1.86 -11.49 1.88 -12.53 Q 1.89 -13.58 1.91 -14.58 Q 1.92 -15.59 1.95 -16.46 Q 1.98 -17.33 2.04 -17.95 L 2.04 -17.95 Q 2.13 -18.91 2.35 -19.69 Q 2.57 -20.46 3.18 -21.02 Q 3.78 -21.57 4.88 -21.86 Q 5.98 -22.16 7.81 -22.16 L 7.81 -22.16 Q 11.96 -22.16 14.02 -20.63 Q 16.09 -19.1 16.09 -16.27 L 16.09 -16.27 Q 16.09 -14.82 15.45 -13.58 Q 14.82 -12.34 13.27 -11.72 L 13.27 -11.72 Q 14.14 -11.56 14.85 -11.06 Q 15.56 -10.57 16.08 -9.87 Q 16.59 -9.17 16.85 -8.33 Q 17.1 -7.48 17.1 -6.6 L 17.1 -6.6 Q 17.1 -5.48 16.64 -4.32 Q 16.18 -3.16 15.07 -2.2 Q 13.96 -1.24 12.11 -0.62 Q 10.26 0 7.54 0 L 7.54 0 Q 5.8 0 4.75 -0.28 Q 3.69 -0.56 3.12 -1.07 Q 2.54 -1.57 2.34 -2.32 Q 2.13 -3.07 2.04 -4 L 2.04 -4 Q 1.95 -5.09 1.91 -6.86 Q 1.86 -8.64 1.86 -10.57 Z M 5.12 -5.8 L 5.12 -5.8 Q 5.12 -4.96 5.24 -4.4 Q 5.36 -3.84 5.7 -3.5 Q 6.04 -3.16 6.68 -3.02 Q 7.31 -2.88 8.31 -2.88 L 8.31 -2.88 Q 11.03 -2.88 12.53 -3.84 Q 14.02 -4.8 14.02 -6.69 L 14.02 -6.69 Q 14.02 -7.81 13.5 -8.49 Q 12.99 -9.17 12.19 -9.53 Q 11.38 -9.88 10.39 -10.01 Q 9.4 -10.14 8.4 -10.14 L 8.4 -10.14 Q 7.63 -10.14 6.79 -10.14 Q 5.95 -10.14 5.24 -10.11 L 5.24 -10.11 Q 5.21 -9.46 5.18 -8.78 Q 5.15 -8.1 5.13 -7.49 Q 5.12 -6.89 5.12 -6.43 Q 5.12 -5.98 5.12 -5.8 Z M 5.12 -17.04 L 5.12 -12.71 Q 5.56 -12.68 6.03 -12.68 Q 6.51 -12.68 6.95 -12.68 L 6.95 -12.68 Q 8.07 -12.68 9.14 -12.84 Q 10.2 -12.99 11.06 -13.36 Q 11.93 -13.73 12.46 -14.38 Q 12.99 -15.03 12.99 -16.06 L 12.99 -16.06 Q 12.99 -17.45 11.86 -18.34 Q 10.73 -19.22 8.28 -19.22 L 8.28 -19.22 Q 7.25 -19.22 6.61 -19.05 Q 5.98 -18.88 5.65 -18.6 Q 5.33 -18.32 5.22 -17.91 Q 5.12 -17.51 5.12 -17.04 L 5.12 -17.04 Z M 33.62 -10.7 L 33.62 -10.7 Q 33.62 -13.15 34.23 -15.2 Q 34.83 -17.24 36.02 -18.72 Q 37.21 -20.21 38.98 -21.03 Q 40.75 -21.86 43.08 -21.86 L 43.08 -21.86 Q 44.97 -21.86 46.68 -21.18 Q 48.38 -20.5 49.67 -19.13 Q 50.95 -17.77 51.7 -15.72 Q 52.44 -13.67 52.44 -10.94 L 52.44 -10.94 Q 52.44 -8.67 51.83 -6.63 Q 51.23 -4.59 50 -3.05 Q 48.77 -1.51 46.92 -0.61 Q 45.07 0.3 42.55 0.3 L 42.55 0.3 Q 40.69 0.3 39.06 -0.44 Q 37.44 -1.18 36.23 -2.59 Q 35.01 -4 34.32 -6.05 Q 33.62 -8.1 33.62 -10.7 Z M 36.73 -10.7 L 36.73 -10.7 Q 36.73 -8.87 37.19 -7.36 Q 37.65 -5.86 38.44 -4.81 Q 39.24 -3.75 40.32 -3.18 Q 41.4 -2.6 42.61 -2.6 L 42.61 -2.6 Q 44.32 -2.6 45.59 -3.3 Q 46.85 -4 47.69 -5.15 Q 48.53 -6.3 48.93 -7.8 Q 49.33 -9.29 49.33 -10.88 L 49.33 -10.88 Q 49.33 -12.81 48.83 -14.3 Q 48.32 -15.8 47.45 -16.83 Q 46.58 -17.86 45.43 -18.4 Q 44.28 -18.94 42.98 -18.94 L 42.98 -18.94 Q 41.43 -18.94 40.27 -18.29 Q 39.1 -17.63 38.31 -16.52 Q 37.53 -15.41 37.13 -13.9 Q 36.73 -12.4 36.73 -10.7 Z M 69.88 -17.6 L 69.88 -17.6 Q 69.88 -18.88 69.94 -19.7 Q 70 -20.53 70.19 -21 Q 70.38 -21.48 70.67 -21.67 Q 70.97 -21.86 71.42 -21.86 L 71.42 -21.86 Q 72.31 -21.86 72.69 -21.05 Q 73.07 -20.24 73.07 -18.25 L 73.07 -18.25 Q 73.07 -17.57 73.06 -17.05 Q 73.04 -16.53 73.04 -15.98 Q 73.04 -15.44 73.03 -14.79 Q 73.01 -14.14 73.01 -13.2 L 73.01 -13.2 Q 73.01 -10.1 73.21 -8.05 Q 73.4 -6.01 73.9 -4.79 Q 74.4 -3.57 75.26 -3.07 Q 76.11 -2.57 77.37 -2.57 L 77.37 -2.57 Q 78.7 -2.57 79.59 -3.12 Q 80.47 -3.66 81 -4.95 Q 81.53 -6.24 81.77 -8.37 Q 82 -10.5 82 -13.7 L 82 -13.7 Q 82 -15.09 81.99 -16.08 Q 81.97 -17.07 81.97 -17.89 L 81.97 -17.89 Q 81.97 -19.04 82.05 -19.81 Q 82.12 -20.59 82.29 -21.03 Q 82.46 -21.48 82.77 -21.67 Q 83.08 -21.86 83.55 -21.86 L 83.55 -21.86 Q 84.02 -21.86 84.33 -21.67 Q 84.64 -21.48 84.82 -21.02 Q 85 -20.56 85.06 -19.73 Q 85.12 -18.91 85.12 -17.6 L 85.12 -17.6 Q 85.12 -12.15 84.78 -8.64 Q 84.44 -5.12 83.58 -3.09 Q 82.71 -1.06 81.21 -0.26 Q 79.7 0.53 77.34 0.53 L 77.34 0.53 Q 73.81 0.53 72.16 -1.39 L 72.16 -1.39 Q 71.51 -2.13 71.07 -3.3 Q 70.62 -4.47 70.35 -6.33 Q 70.09 -8.19 69.98 -10.93 Q 69.88 -13.67 69.88 -17.6 Z M 102.26 -20.21 L 102.26 -20.21 Q 102.26 -20.48 102.33 -20.71 Q 102.39 -20.95 102.61 -21.15 Q 102.82 -21.36 103.21 -21.48 Q 103.61 -21.6 104.21 -21.68 L 104.21 -21.68 Q 104.8 -21.71 105.27 -21.74 Q 105.74 -21.77 106.2 -21.8 Q 106.66 -21.83 107.16 -21.83 Q 107.66 -21.83 108.31 -21.83 L 108.31 -21.83 Q 110.14 -21.83 111.77 -21.8 Q 113.4 -21.77 115.23 -21.68 L 115.23 -21.68 Q 115.97 -21.62 116.37 -21.5 Q 116.77 -21.39 116.99 -21.21 Q 117.21 -21.02 117.26 -20.78 Q 117.3 -20.53 117.3 -20.21 L 117.3 -20.21 Q 117.3 -19.65 116.92 -19.28 Q 116.53 -18.91 115.26 -18.85 L 115.26 -18.85 Q 114.4 -18.78 113.41 -18.75 Q 112.43 -18.72 111.25 -18.69 L 111.25 -18.69 Q 111.28 -17.86 111.32 -17.13 Q 111.36 -16.39 111.39 -15.65 Q 111.42 -14.91 111.43 -14.11 Q 111.45 -13.31 111.45 -12.31 L 111.45 -12.31 Q 111.45 -10.91 111.45 -9.63 Q 111.45 -8.34 111.42 -7.05 Q 111.39 -5.77 111.35 -4.47 Q 111.31 -3.16 111.25 -1.77 L 111.25 -1.77 Q 111.22 -1.03 111.11 -0.62 Q 111.01 -0.21 110.82 0 Q 110.63 0.21 110.39 0.26 Q 110.14 0.3 109.83 0.3 L 109.83 0.3 Q 109.27 0.3 108.88 -0.08 Q 108.5 -0.47 108.43 -1.74 L 108.43 -1.74 Q 108.37 -2.86 108.36 -4.09 Q 108.34 -5.33 108.31 -6.76 Q 108.28 -8.19 108.28 -9.85 Q 108.28 -11.5 108.28 -13.52 L 108.28 -13.52 Q 108.28 -15.23 108.3 -16.5 Q 108.31 -17.77 108.37 -18.69 L 108.37 -18.69 L 107.1 -18.69 Q 105.8 -18.69 104.88 -18.72 Q 103.97 -18.75 103.38 -18.89 Q 102.79 -19.03 102.52 -19.34 Q 102.26 -19.65 102.26 -20.21 Z M 134.78 -6.85 Q 134.75 -8.25 134.75 -9.88 Q 134.75 -11.5 134.75 -13.52 L 134.75 -13.52 Q 134.75 -15.71 134.78 -17.28 Q 134.81 -18.85 134.96 -19.84 Q 135.12 -20.83 135.45 -21.3 Q 135.77 -21.77 136.33 -21.77 L 136.33 -21.77 Q 136.61 -21.77 136.86 -21.71 Q 137.11 -21.65 137.3 -21.44 Q 137.49 -21.24 137.62 -20.85 Q 137.76 -20.46 137.79 -19.84 L 137.79 -19.84 Q 137.85 -18.72 137.88 -17.85 Q 137.91 -16.98 137.94 -16.14 Q 137.97 -15.29 137.97 -14.37 Q 137.97 -13.46 137.97 -12.31 L 137.97 -12.31 Q 137.97 -10.91 137.97 -9.64 Q 137.97 -8.37 137.94 -7.13 Q 137.91 -5.89 137.88 -4.62 Q 137.85 -3.35 137.79 -1.95 L 137.79 -1.95 Q 137.76 -1.21 137.64 -0.81 Q 137.52 -0.41 137.33 -0.19 Q 137.14 0.03 136.89 0.08 Q 136.64 0.12 136.33 0.12 L 136.33 0.12 Q 135.77 0.12 135.37 -0.26 Q 134.97 -0.65 134.91 -1.92 L 134.91 -1.92 Q 134.85 -3.04 134.83 -4.25 Q 134.81 -5.45 134.78 -6.85 Z M 155.73 -10.7 L 155.73 -10.7 Q 155.73 -13.15 156.33 -15.2 Q 156.94 -17.24 158.13 -18.72 Q 159.32 -20.21 161.09 -21.03 Q 162.86 -21.86 165.19 -21.86 L 165.19 -21.86 Q 167.08 -21.86 168.78 -21.18 Q 170.49 -20.5 171.77 -19.13 Q 173.06 -17.77 173.8 -15.72 Q 174.54 -13.67 174.54 -10.94 L 174.54 -10.94 Q 174.54 -8.72 173.97 -6.73 Q 173.39 -4.74 172.21 -3.19 L 172.21 -3.19 L 173.98 -1.74 Q 174.33 -1.47 174.63 -1.04 Q 174.92 -0.62 174.92 -0.09 L 174.92 -0.09 Q 174.92 0.53 174.42 0.9 Q 173.92 1.27 173.24 1.27 L 173.24 1.27 Q 172.38 1.27 171.41 0.41 L 171.41 0.41 L 169.81 -1 Q 168.75 -0.38 167.47 -0.04 Q 166.2 0.3 164.66 0.3 L 164.66 0.3 Q 162.8 0.3 161.17 -0.44 Q 159.54 -1.18 158.33 -2.59 Q 157.12 -4 156.42 -6.05 Q 155.73 -8.1 155.73 -10.7 Z M 158.83 -10.7 L 158.83 -10.7 Q 158.83 -8.87 159.29 -7.36 Q 159.75 -5.86 160.55 -4.81 Q 161.34 -3.75 162.43 -3.18 Q 163.51 -2.6 164.72 -2.6 L 164.72 -2.6 Q 166.43 -2.6 167.69 -3.3 Q 168.96 -4 169.8 -5.15 Q 170.64 -6.3 171.04 -7.8 Q 171.44 -9.29 171.44 -10.88 L 171.44 -10.88 Q 171.44 -12.81 170.93 -14.3 Q 170.43 -15.8 169.56 -16.83 Q 168.69 -17.86 167.54 -18.4 Q 166.38 -18.94 165.08 -18.94 L 165.08 -18.94 Q 163.54 -18.94 162.37 -18.29 Q 161.21 -17.63 160.42 -16.52 Q 159.63 -15.41 159.23 -13.9 Q 158.83 -12.4 158.83 -10.7 Z M 191.98 -17.6 L 191.98 -17.6 Q 191.98 -18.88 192.04 -19.7 Q 192.11 -20.53 192.29 -21 Q 192.48 -21.48 192.78 -21.67 Q 193.07 -21.86 193.53 -21.86 L 193.53 -21.86 Q 194.42 -21.86 194.8 -21.05 Q 195.18 -20.24 195.18 -18.25 L 195.18 -18.25 Q 195.18 -17.57 195.16 -17.05 Q 195.15 -16.53 195.15 -15.98 Q 195.15 -15.44 195.13 -14.79 Q 195.12 -14.14 195.12 -13.2 L 195.12 -13.2 Q 195.12 -10.1 195.31 -8.05 Q 195.51 -6.01 196.01 -4.79 Q 196.51 -3.57 197.37 -3.07 Q 198.22 -2.57 199.48 -2.57 L 199.48 -2.57 Q 200.81 -2.57 201.69 -3.12 Q 202.58 -3.66 203.11 -4.95 Q 203.64 -6.24 203.87 -8.37 Q 204.11 -10.5 204.11 -13.7 L 204.11 -13.7 Q 204.11 -15.09 204.09 -16.08 Q 204.08 -17.07 204.08 -17.89 L 204.08 -17.89 Q 204.08 -19.04 204.15 -19.81 Q 204.23 -20.59 204.4 -21.03 Q 204.56 -21.48 204.87 -21.67 Q 205.18 -21.86 205.65 -21.86 L 205.65 -21.86 Q 206.12 -21.86 206.43 -21.67 Q 206.74 -21.48 206.92 -21.02 Q 207.11 -20.56 207.17 -19.73 Q 207.23 -18.91 207.23 -17.6 L 207.23 -17.6 Q 207.23 -12.15 206.89 -8.64 Q 206.55 -5.12 205.68 -3.09 Q 204.82 -1.06 203.31 -0.26 Q 201.81 0.53 199.45 0.53 L 199.45 0.53 Q 195.92 0.53 194.27 -1.39 L 194.27 -1.39 Q 193.62 -2.13 193.17 -3.3 Q 192.73 -4.47 192.46 -6.33 Q 192.2 -8.19 192.09 -10.93 Q 191.98 -13.67 191.98 -17.6 Z M 225.3 -10.91 L 225.3 -10.91 Q 225.3 -11.94 225.32 -13.04 Q 225.33 -14.14 225.36 -15.29 L 225.36 -15.29 Q 225.42 -17.59 225.66 -18.88 Q 225.89 -20.18 226.59 -20.83 Q 227.29 -21.48 228.56 -21.64 Q 229.83 -21.8 231.93 -21.8 L 231.93 -21.8 Q 231.96 -21.8 232.6 -21.8 Q 233.24 -21.8 234.14 -21.78 Q 235.04 -21.77 236.01 -21.74 Q 236.99 -21.71 237.64 -21.68 L 237.64 -21.68 Q 238.32 -21.62 238.74 -21.5 Q 239.15 -21.39 239.37 -21.22 Q 239.59 -21.06 239.65 -20.82 Q 239.71 -20.59 239.71 -20.3 L 239.71 -20.3 Q 239.71 -19.59 239.31 -19.26 Q 238.91 -18.94 237.67 -18.85 L 237.67 -18.85 Q 237.05 -18.78 235.85 -18.77 Q 234.66 -18.75 233.42 -18.75 Q 232.19 -18.75 231.19 -18.74 Q 230.19 -18.72 229.95 -18.72 L 229.95 -18.72 Q 229.15 -18.69 228.82 -18.37 Q 228.5 -18.04 228.5 -16.83 L 228.5 -16.83 Q 228.5 -16.56 228.54 -15.48 Q 228.59 -14.41 228.59 -12.49 L 228.59 -12.49 L 231.16 -12.49 Q 232.81 -12.49 233.85 -12.44 Q 234.89 -12.4 235.45 -12.25 Q 236.02 -12.09 236.24 -11.75 Q 236.46 -11.41 236.46 -10.85 L 236.46 -10.85 Q 236.46 -10.58 236.41 -10.35 Q 236.37 -10.11 236.15 -9.94 Q 235.93 -9.76 235.53 -9.66 Q 235.13 -9.55 234.39 -9.49 L 234.39 -9.49 Q 233.49 -9.43 232.7 -9.42 Q 231.9 -9.4 231.13 -9.4 L 231.13 -9.4 L 228.53 -9.4 Q 228.53 -8.93 228.53 -8.28 Q 228.53 -7.63 228.53 -6.95 Q 228.53 -6.27 228.54 -5.62 Q 228.56 -4.96 228.59 -4.56 L 228.59 -4.56 Q 228.62 -4.06 228.72 -3.72 Q 228.83 -3.38 229.13 -3.16 Q 229.42 -2.95 230 -2.85 Q 230.57 -2.75 231.54 -2.75 L 231.54 -2.75 L 238.2 -2.75 Q 239.29 -2.75 239.56 -2.35 Q 239.83 -1.95 239.83 -1.27 L 239.83 -1.27 Q 239.83 -0.71 239.59 -0.42 Q 239.35 -0.12 238.4 0.02 Q 237.46 0.15 235.58 0.18 Q 233.7 0.21 230.42 0.21 L 230.42 0.21 Q 229.03 0.21 228.13 -0.03 Q 227.23 -0.27 226.67 -0.86 Q 226.11 -1.45 225.84 -2.4 Q 225.58 -3.35 225.49 -4.71 L 225.49 -4.71 Q 225.42 -5.71 225.36 -7.41 Q 225.3 -9.11 225.3 -10.91 Z M 278.14 -6.85 Q 278.11 -8.25 278.11 -9.88 Q 278.11 -11.5 278.11 -13.52 L 278.11 -13.52 Q 278.11 -15.71 278.14 -17.28 Q 278.17 -18.85 278.33 -19.84 Q 278.49 -20.83 278.81 -21.3 Q 279.14 -21.77 279.7 -21.77 L 279.7 -21.77 Q 279.97 -21.77 280.22 -21.71 Q 280.47 -21.65 280.66 -21.44 Q 280.85 -21.24 280.98 -20.85 Q 281.12 -20.46 281.15 -19.84 L 281.15 -19.84 Q 281.21 -18.72 281.24 -17.85 Q 281.27 -16.98 281.3 -16.14 Q 281.33 -15.29 281.33 -14.37 Q 281.33 -13.46 281.33 -12.31 L 281.33 -12.31 Q 281.33 -10.91 281.33 -9.64 Q 281.33 -8.37 281.3 -7.13 Q 281.27 -5.89 281.24 -4.62 Q 281.21 -3.35 281.15 -1.95 L 281.15 -1.95 Q 281.12 -1.21 281 -0.81 Q 280.88 -0.41 280.69 -0.19 Q 280.5 0.03 280.25 0.08 Q 280 0.12 279.7 0.12 L 279.7 0.12 Q 279.14 0.12 278.74 -0.26 Q 278.33 -0.65 278.27 -1.92 L 278.27 -1.92 Q 278.21 -3.04 278.19 -4.25 Q 278.17 -5.45 278.14 -6.85 Z M 299.71 -15.85 L 299.71 -15.85 Q 299.71 -17.92 299.76 -19.09 Q 299.8 -20.27 299.98 -20.86 Q 300.15 -21.45 300.44 -21.61 Q 300.72 -21.77 301.22 -21.77 L 301.22 -21.77 Q 301.72 -21.77 302.53 -21 Q 303.33 -20.24 304.29 -19 Q 305.25 -17.77 306.36 -16.16 Q 307.46 -14.55 308.54 -12.84 Q 309.63 -11.13 310.63 -9.45 Q 311.64 -7.78 312.49 -6.42 L 312.49 -6.42 Q 312.46 -7.87 312.46 -9.63 Q 312.46 -11.38 312.46 -13.52 L 312.46 -13.52 Q 312.46 -15.97 312.49 -17.57 Q 312.52 -19.16 312.65 -20.09 Q 312.79 -21.02 313.1 -21.4 Q 313.41 -21.77 313.97 -21.77 L 313.97 -21.77 Q 314.5 -21.77 314.9 -21.43 Q 315.3 -21.09 315.36 -19.84 L 315.36 -19.84 Q 315.42 -18.72 315.45 -17.85 Q 315.48 -16.98 315.51 -16.14 Q 315.54 -15.29 315.54 -14.37 Q 315.54 -13.46 315.54 -12.31 L 315.54 -12.31 Q 315.54 -10.91 315.54 -9.64 Q 315.54 -8.37 315.51 -7.13 Q 315.48 -5.89 315.45 -4.62 Q 315.42 -3.35 315.36 -1.95 L 315.36 -1.95 Q 315.33 -1.21 315.23 -0.81 Q 315.12 -0.41 314.93 -0.19 Q 314.74 0.03 314.51 0.08 Q 314.27 0.12 313.97 0.12 L 313.97 0.12 Q 313.44 0.12 313.07 -0.19 Q 312.7 -0.5 311.99 -1.45 L 311.99 -1.45 Q 310.99 -2.82 310.11 -4.17 Q 309.23 -5.52 308.22 -7.14 Q 307.2 -8.75 305.92 -10.72 Q 304.65 -12.68 302.84 -15.32 L 302.84 -15.32 Q 302.84 -12.99 302.84 -11.14 Q 302.84 -9.29 302.81 -7.72 Q 302.78 -6.15 302.75 -4.75 Q 302.72 -3.35 302.65 -1.95 L 302.65 -1.95 Q 302.62 -1.21 302.51 -0.81 Q 302.41 -0.41 302.22 -0.19 Q 302.03 0.03 301.8 0.08 Q 301.57 0.12 301.25 0.12 L 301.25 0.12 Q 300.69 0.12 300.32 -0.26 Q 299.95 -0.65 299.89 -1.92 L 299.89 -1.92 Q 299.74 -5.33 299.73 -8.76 Q 299.71 -12.19 299.71 -15.85 Z M 332.38 -1.21 L 332.38 -1.21 Q 332.38 -1.92 332.55 -3.4 Q 332.71 -4.87 332.98 -6.73 Q 333.24 -8.58 333.58 -10.63 Q 333.92 -12.68 334.28 -14.59 Q 334.63 -16.5 334.96 -18.04 Q 335.29 -19.59 335.54 -20.43 L 335.54 -20.43 Q 335.95 -21.86 337.18 -21.86 L 337.18 -21.86 Q 337.92 -21.86 338.45 -21.13 Q 338.98 -20.4 339.58 -18.9 Q 340.19 -17.39 341.04 -15.1 Q 341.9 -12.81 343.26 -9.7 L 343.26 -9.7 Q 344.59 -12.81 345.41 -15.08 Q 346.23 -17.36 346.8 -18.87 Q 347.38 -20.37 347.91 -21.1 Q 348.44 -21.83 349.21 -21.83 L 349.21 -21.83 Q 349.92 -21.83 350.29 -21.47 Q 350.66 -21.12 350.86 -20.4 L 350.86 -20.4 Q 351.07 -19.54 351.38 -18 Q 351.69 -16.45 352.05 -14.58 Q 352.4 -12.71 352.75 -10.66 Q 353.09 -8.61 353.37 -6.76 Q 353.65 -4.9 353.81 -3.4 Q 353.98 -1.89 353.98 -1.09 L 353.98 -1.09 Q 353.98 -0.59 353.64 -0.3 Q 353.3 0 352.78 0 L 352.78 0 Q 352.44 0 351.94 -0.26 Q 351.44 -0.53 351.25 -1.33 L 351.25 -1.33 Q 350.88 -3.1 350.59 -5 Q 350.3 -6.89 350.04 -8.82 Q 349.77 -10.76 349.52 -12.7 Q 349.27 -14.64 349 -16.56 L 349 -16.56 Q 348.59 -15.32 348.06 -13.83 Q 347.53 -12.34 346.95 -10.83 Q 346.37 -9.32 345.74 -7.87 Q 345.12 -6.42 344.53 -5.24 L 344.53 -5.24 Q 344.32 -4.83 343.96 -4.63 Q 343.6 -4.44 343.23 -4.44 L 343.23 -4.44 Q 342.82 -4.44 342.47 -4.63 Q 342.11 -4.83 341.93 -5.27 L 341.93 -5.27 Q 340.51 -8.4 339.4 -11.33 Q 338.3 -14.26 337.53 -16.56 L 337.53 -16.56 Q 336.81 -12.71 336.33 -8.81 Q 335.85 -4.9 335.1 -1.33 L 335.1 -1.33 Q 334.92 -0.53 334.42 -0.26 Q 333.92 0 333.59 0 L 333.59 0 Q 333.03 0 332.7 -0.34 Q 332.38 -0.68 332.38 -1.21 Z M 369.89 -10.7 L 369.89 -10.7 Q 369.89 -13.15 370.5 -15.2 Q 371.1 -17.24 372.29 -18.72 Q 373.48 -20.21 375.25 -21.03 Q 377.02 -21.86 379.35 -21.86 L 379.35 -21.86 Q 381.24 -21.86 382.95 -21.18 Q 384.65 -20.5 385.94 -19.13 Q 387.22 -17.77 387.96 -15.72 Q 388.71 -13.67 388.71 -10.94 L 388.71 -10.94 Q 388.71 -8.67 388.1 -6.63 Q 387.5 -4.59 386.27 -3.05 Q 385.04 -1.51 383.19 -0.61 Q 381.33 0.3 378.82 0.3 L 378.82 0.3 Q 376.96 0.3 375.33 -0.44 Q 373.71 -1.18 372.49 -2.59 Q 371.28 -4 370.59 -6.05 Q 369.89 -8.1 369.89 -10.7 Z M 372.99 -10.7 L 372.99 -10.7 Q 372.99 -8.87 373.46 -7.36 Q 373.92 -5.86 374.71 -4.81 Q 375.51 -3.75 376.59 -3.18 Q 377.67 -2.6 378.88 -2.6 L 378.88 -2.6 Q 380.59 -2.6 381.86 -3.3 Q 383.12 -4 383.96 -5.15 Q 384.8 -6.3 385.2 -7.8 Q 385.6 -9.29 385.6 -10.88 L 385.6 -10.88 Q 385.6 -12.81 385.1 -14.3 Q 384.59 -15.8 383.72 -16.83 Q 382.85 -17.86 381.7 -18.4 Q 380.55 -18.94 379.25 -18.94 L 379.25 -18.94 Q 377.7 -18.94 376.54 -18.29 Q 375.37 -17.63 374.58 -16.52 Q 373.8 -15.41 373.4 -13.9 Q 372.99 -12.4 372.99 -10.7 Z M 406.15 -10.57 L 406.15 -10.57 Q 406.15 -11.49 406.16 -12.53 Q 406.18 -13.58 406.19 -14.58 Q 406.21 -15.59 406.24 -16.46 Q 406.27 -17.33 406.33 -17.95 L 406.33 -17.95 Q 406.42 -18.91 406.64 -19.69 Q 406.86 -20.46 407.46 -21.02 Q 408.07 -21.57 409.17 -21.86 Q 410.26 -22.16 412.1 -22.16 L 412.1 -22.16 Q 416.24 -22.16 418.31 -20.63 Q 420.38 -19.1 420.38 -16.27 L 420.38 -16.27 Q 420.38 -14.82 419.74 -13.58 Q 419.1 -12.34 417.56 -11.72 L 417.56 -11.72 Q 418.42 -11.56 419.13 -11.06 Q 419.85 -10.57 420.36 -9.87 Q 420.88 -9.17 421.13 -8.33 Q 421.39 -7.48 421.39 -6.6 L 421.39 -6.6 Q 421.39 -5.48 420.93 -4.32 Q 420.47 -3.16 419.35 -2.2 Q 418.24 -1.24 416.39 -0.62 Q 414.55 0 411.82 0 L 411.82 0 Q 410.08 0 409.03 -0.28 Q 407.98 -0.56 407.4 -1.07 Q 406.83 -1.57 406.62 -2.32 Q 406.42 -3.07 406.33 -4 L 406.33 -4 Q 406.24 -5.09 406.19 -6.86 Q 406.15 -8.64 406.15 -10.57 Z M 409.4 -5.8 L 409.4 -5.8 Q 409.4 -4.96 409.52 -4.4 Q 409.64 -3.84 409.98 -3.5 Q 410.32 -3.16 410.96 -3.02 Q 411.6 -2.88 412.6 -2.88 L 412.6 -2.88 Q 415.32 -2.88 416.81 -3.84 Q 418.3 -4.8 418.3 -6.69 L 418.3 -6.69 Q 418.3 -7.81 417.79 -8.49 Q 417.27 -9.17 416.47 -9.53 Q 415.67 -9.88 414.68 -10.01 Q 413.69 -10.14 412.69 -10.14 L 412.69 -10.14 Q 411.91 -10.14 411.07 -10.14 Q 410.23 -10.14 409.52 -10.11 L 409.52 -10.11 Q 409.49 -9.46 409.46 -8.78 Q 409.43 -8.1 409.42 -7.49 Q 409.4 -6.89 409.4 -6.43 Q 409.4 -5.98 409.4 -5.8 Z M 409.4 -17.04 L 409.4 -12.71 Q 409.84 -12.68 410.32 -12.68 Q 410.79 -12.68 411.23 -12.68 L 411.23 -12.68 Q 412.35 -12.68 413.42 -12.84 Q 414.49 -12.99 415.35 -13.36 Q 416.21 -13.73 416.74 -14.38 Q 417.27 -15.03 417.27 -16.06 L 417.27 -16.06 Q 417.27 -17.45 416.14 -18.34 Q 415.02 -19.22 412.57 -19.22 L 412.57 -19.22 Q 411.54 -19.22 410.9 -19.05 Q 410.26 -18.88 409.94 -18.6 Q 409.61 -18.32 409.51 -17.91 Q 409.4 -17.51 409.4 -17.04 L 409.4 -17.04 Z M 438.86 -6.85 Q 438.83 -8.25 438.83 -9.88 Q 438.83 -11.5 438.83 -13.52 L 438.83 -13.52 Q 438.83 -15.71 438.86 -17.28 Q 438.89 -18.85 439.05 -19.84 Q 439.21 -20.83 439.53 -21.3 Q 439.86 -21.77 440.42 -21.77 L 440.42 -21.77 Q 440.69 -21.77 440.94 -21.71 Q 441.19 -21.65 441.38 -21.44 Q 441.57 -21.24 441.71 -20.85 Q 441.84 -20.46 441.87 -19.84 L 441.87 -19.84 Q 441.93 -18.72 441.96 -17.85 Q 441.99 -16.98 442.02 -16.14 Q 442.05 -15.29 442.05 -14.37 Q 442.05 -13.46 442.05 -12.31 L 442.05 -12.31 Q 442.05 -10.91 442.05 -9.64 Q 442.05 -8.37 442.02 -7.13 Q 441.99 -5.89 441.96 -4.62 Q 441.93 -3.35 441.87 -1.95 L 441.87 -1.95 Q 441.84 -1.21 441.72 -0.81 Q 441.6 -0.41 441.41 -0.19 Q 441.22 0.03 440.97 0.08 Q 440.72 0.12 440.42 0.12 L 440.42 0.12 Q 439.86 0.12 439.46 -0.26 Q 439.06 -0.65 439 -1.92 L 439 -1.92 Q 438.94 -3.04 438.91 -4.25 Q 438.89 -5.45 438.86 -6.85 Z M 460.43 -6.83 L 460.43 -6.83 Q 460.43 -9.34 460.43 -11.28 Q 460.43 -13.23 460.46 -14.78 Q 460.49 -16.33 460.51 -17.54 Q 460.52 -18.75 460.59 -19.75 L 460.59 -19.75 Q 460.65 -21.02 461.02 -21.41 Q 461.39 -21.8 461.95 -21.8 L 461.95 -21.8 Q 462.25 -21.8 462.49 -21.75 Q 462.72 -21.71 462.91 -21.49 Q 463.1 -21.27 463.2 -20.87 Q 463.31 -20.46 463.34 -19.72 L 463.34 -19.72 Q 463.46 -17 463.5 -14.33 Q 463.54 -11.66 463.54 -8.64 L 463.54 -8.64 Q 463.54 -7.64 463.54 -6.89 Q 463.54 -6.15 463.52 -5.46 Q 463.51 -4.77 463.48 -4.09 Q 463.45 -3.41 463.4 -2.57 L 463.4 -2.57 Q 465.54 -2.82 466.75 -2.97 Q 467.97 -3.13 468.67 -3.22 Q 469.36 -3.31 469.75 -3.35 Q 470.14 -3.38 470.67 -3.39 L 470.67 -3.39 Q 472.03 -3.39 472.03 -2.04 L 472.03 -2.04 Q 472.03 -1.51 471.48 -1.14 Q 470.94 -0.77 470.12 -0.51 Q 469.3 -0.24 468.29 -0.08 Q 467.28 0.09 466.34 0.17 Q 465.4 0.24 464.63 0.27 Q 463.87 0.3 463.57 0.3 L 463.57 0.3 Q 462.45 0.3 461.83 0.17 Q 461.21 0.03 460.9 -0.67 Q 460.59 -1.36 460.51 -2.79 Q 460.43 -4.22 460.43 -6.83 Z M 489.18 -6.85 Q 489.15 -8.25 489.15 -9.88 Q 489.15 -11.5 489.15 -13.52 L 489.15 -13.52 Q 489.15 -15.71 489.18 -17.28 Q 489.21 -18.85 489.37 -19.84 Q 489.53 -20.83 489.86 -21.3 Q 490.18 -21.77 490.74 -21.77 L 490.74 -21.77 Q 491.01 -21.77 491.26 -21.71 Q 491.51 -21.65 491.7 -21.44 Q 491.89 -21.24 492.03 -20.85 Q 492.16 -20.46 492.19 -19.84 L 492.19 -19.84 Q 492.25 -18.72 492.29 -17.85 Q 492.32 -16.98 492.35 -16.14 Q 492.38 -15.29 492.38 -14.37 Q 492.38 -13.46 492.38 -12.31 L 492.38 -12.31 Q 492.38 -10.91 492.38 -9.64 Q 492.38 -8.37 492.35 -7.13 Q 492.32 -5.89 492.29 -4.62 Q 492.25 -3.35 492.19 -1.95 L 492.19 -1.95 Q 492.16 -1.21 492.04 -0.81 Q 491.92 -0.41 491.73 -0.19 Q 491.54 0.03 491.29 0.08 Q 491.04 0.12 490.74 0.12 L 490.74 0.12 Q 490.18 0.12 489.78 -0.26 Q 489.38 -0.65 489.32 -1.92 L 489.32 -1.92 Q 489.26 -3.04 489.24 -4.25 Q 489.21 -5.45 489.18 -6.85 Z M 509.51 -1.09 L 509.51 -1.09 Q 509.51 -1.62 509.7 -2.47 Q 509.89 -3.31 510.18 -4.29 Q 510.47 -5.27 510.82 -6.3 Q 511.16 -7.34 511.47 -8.25 L 511.47 -8.25 Q 511.77 -9.25 512.34 -10.78 Q 512.92 -12.31 513.57 -13.98 Q 514.22 -15.65 514.87 -17.28 Q 515.52 -18.91 516.05 -20.12 L 516.05 -20.12 Q 516.17 -20.42 516.36 -20.81 Q 516.55 -21.21 516.82 -21.55 Q 517.08 -21.89 517.41 -22.14 Q 517.73 -22.39 518.13 -22.39 L 518.13 -22.39 Q 518.54 -22.39 518.88 -22.12 Q 519.22 -21.86 519.48 -21.49 Q 519.75 -21.12 519.94 -20.71 Q 520.14 -20.3 520.28 -20 L 520.28 -20 Q 520.78 -18.75 521.4 -17.14 Q 522.03 -15.53 522.67 -13.89 Q 523.3 -12.25 523.86 -10.75 Q 524.42 -9.26 524.77 -8.25 L 524.77 -8.25 Q 525.04 -7.36 525.4 -6.33 Q 525.76 -5.3 526.07 -4.31 Q 526.38 -3.31 526.58 -2.46 Q 526.79 -1.6 526.79 -1.09 L 526.79 -1.09 Q 526.79 -0.56 526.39 -0.28 Q 526 0 525.57 0 L 525.57 0 Q 525.01 0 524.55 -0.39 Q 524.09 -0.77 523.74 -1.57 L 523.74 -1.57 Q 523.44 -2.32 523.08 -3.3 Q 522.71 -4.28 522.32 -5.36 L 522.32 -5.36 Q 521.4 -5.33 520.37 -5.31 Q 519.34 -5.3 518.29 -5.3 L 518.29 -5.3 Q 516.96 -5.3 515.87 -5.3 Q 514.78 -5.3 513.89 -5.33 L 513.89 -5.33 Q 513.51 -4.24 513.17 -3.28 Q 512.83 -2.33 512.53 -1.57 L 512.53 -1.57 Q 511.91 0 510.73 0 L 510.73 0 Q 510.29 0 509.9 -0.28 Q 509.51 -0.56 509.51 -1.09 Z M 514.93 -8.34 L 514.93 -8.34 Q 515.77 -8.37 516.61 -8.39 Q 517.45 -8.4 518.25 -8.4 L 518.25 -8.4 Q 518.99 -8.4 519.74 -8.39 Q 520.49 -8.37 521.23 -8.34 L 521.23 -8.34 Q 520.85 -9.43 520.48 -10.51 Q 520.11 -11.59 519.78 -12.59 Q 519.46 -13.58 519.2 -14.43 Q 518.94 -15.29 518.75 -15.94 L 518.75 -15.94 Q 518.63 -16.35 518.48 -16.59 Q 518.32 -16.83 518.07 -16.83 L 518.07 -16.83 Q 517.82 -16.83 517.67 -16.57 Q 517.51 -16.3 517.39 -15.91 L 517.39 -15.91 Q 517.01 -14.64 516.35 -12.6 Q 515.69 -10.57 514.93 -8.34 Z M 543.3 -15.56 L 543.3 -15.56 Q 543.3 -16.83 543.61 -18.03 Q 543.92 -19.22 544.73 -20.14 Q 545.53 -21.06 546.91 -21.61 Q 548.3 -22.16 550.43 -22.16 L 550.43 -22.16 Q 551.95 -22.16 553.39 -21.82 Q 554.84 -21.48 555.95 -20.65 Q 557.06 -19.81 557.74 -18.38 Q 558.42 -16.95 558.42 -14.82 L 558.42 -14.82 Q 558.42 -11.97 557.21 -10.41 Q 555.99 -8.84 553.84 -8.19 L 553.84 -8.19 L 558 -2.48 Q 558.55 -1.76 558.55 -1 L 558.55 -1 Q 558.55 -0.33 558.13 0.02 Q 557.71 0.38 557.09 0.38 L 557.09 0.38 Q 556.41 0.38 555.92 -0.02 Q 555.43 -0.41 554.99 -1.03 L 554.99 -1.03 L 550.46 -7.63 Q 550.02 -7.6 549.58 -7.58 Q 549.13 -7.57 548.66 -7.57 L 548.66 -7.57 Q 548.13 -7.57 547.61 -7.57 Q 547.09 -7.57 546.44 -7.63 L 546.44 -7.63 L 546.44 -1.33 Q 546.44 -0.33 545.95 -0.11 Q 545.47 0.12 544.76 0.12 L 544.76 0.12 Q 544.38 0.12 544.17 0.08 Q 543.95 0.03 543.81 -0.11 Q 543.67 -0.24 543.59 -0.52 Q 543.51 -0.8 543.48 -1.3 L 543.48 -1.3 Q 543.42 -1.86 543.39 -2.93 Q 543.36 -4 543.35 -5.7 Q 543.33 -7.4 543.32 -9.84 Q 543.3 -12.28 543.3 -15.56 Z M 546.44 -14.88 Q 546.44 -13.99 546.44 -12.78 Q 546.44 -11.56 546.47 -10.57 L 546.47 -10.57 Q 547.18 -10.54 548.06 -10.54 Q 548.95 -10.54 549.72 -10.54 L 549.72 -10.54 Q 550.58 -10.54 551.56 -10.65 Q 552.54 -10.76 553.38 -11.21 Q 554.22 -11.66 554.78 -12.51 Q 555.34 -13.37 555.34 -14.85 L 555.34 -14.85 Q 555.34 -16.98 554.05 -18.03 Q 552.76 -19.07 549.96 -19.07 L 549.96 -19.07 Q 548.93 -19.07 548.26 -18.9 Q 547.59 -18.72 547.18 -18.26 Q 546.77 -17.8 546.6 -16.98 Q 546.44 -16.15 546.44 -14.88 L 546.44 -14.88 Z M 575.87 -6.85 Q 575.83 -8.25 575.83 -9.88 Q 575.83 -11.5 575.83 -13.52 L 575.83 -13.52 Q 575.83 -15.71 575.87 -17.28 Q 575.9 -18.85 576.05 -19.84 Q 576.21 -20.83 576.54 -21.3 Q 576.86 -21.77 577.42 -21.77 L 577.42 -21.77 Q 577.7 -21.77 577.95 -21.71 Q 578.2 -21.65 578.39 -21.44 Q 578.57 -21.24 578.71 -20.85 Q 578.85 -20.46 578.88 -19.84 L 578.88 -19.84 Q 578.94 -18.72 578.97 -17.85 Q 579 -16.98 579.03 -16.14 Q 579.06 -15.29 579.06 -14.37 Q 579.06 -13.46 579.06 -12.31 L 579.06 -12.31 Q 579.06 -10.91 579.06 -9.64 Q 579.06 -8.37 579.03 -7.13 Q 579 -5.89 578.97 -4.62 Q 578.94 -3.35 578.88 -1.95 L 578.88 -1.95 Q 578.85 -1.21 578.73 -0.81 Q 578.6 -0.41 578.42 -0.19 Q 578.23 0.03 577.98 0.08 Q 577.73 0.12 577.42 0.12 L 577.42 0.12 Q 576.86 0.12 576.46 -0.26 Q 576.06 -0.65 576 -1.92 L 576 -1.92 Q 575.94 -3.04 575.92 -4.25 Q 575.9 -5.45 575.87 -6.85 Z M 596.2 -1.09 L 596.2 -1.09 Q 596.2 -1.62 596.39 -2.47 Q 596.58 -3.31 596.86 -4.29 Q 597.15 -5.27 597.5 -6.3 Q 597.85 -7.34 598.15 -8.25 L 598.15 -8.25 Q 598.45 -9.25 599.03 -10.78 Q 599.6 -12.31 600.25 -13.98 Q 600.9 -15.65 601.56 -17.28 Q 602.21 -18.91 602.74 -20.12 L 602.74 -20.12 Q 602.86 -20.42 603.05 -20.81 Q 603.24 -21.21 603.5 -21.55 Q 603.77 -21.89 604.09 -22.14 Q 604.42 -22.39 604.81 -22.39 L 604.81 -22.39 Q 605.22 -22.39 605.56 -22.12 Q 605.9 -21.86 606.16 -21.49 Q 606.43 -21.12 606.63 -20.71 Q 606.82 -20.3 606.96 -20 L 606.96 -20 Q 607.46 -18.75 608.09 -17.14 Q 608.72 -15.53 609.35 -13.89 Q 609.99 -12.25 610.55 -10.75 Q 611.11 -9.26 611.46 -8.25 L 611.46 -8.25 Q 611.73 -7.36 612.08 -6.33 Q 612.44 -5.3 612.75 -4.31 Q 613.06 -3.31 613.26 -2.46 Q 613.47 -1.6 613.47 -1.09 L 613.47 -1.09 Q 613.47 -0.56 613.07 -0.28 Q 612.68 0 612.26 0 L 612.26 0 Q 611.7 0 611.24 -0.39 Q 610.77 -0.77 610.43 -1.57 L 610.43 -1.57 Q 610.12 -2.32 609.76 -3.3 Q 609.4 -4.28 609 -5.36 L 609 -5.36 Q 608.08 -5.33 607.05 -5.31 Q 606.02 -5.3 604.98 -5.3 L 604.98 -5.3 Q 603.64 -5.3 602.55 -5.3 Q 601.46 -5.3 600.57 -5.33 L 600.57 -5.33 Q 600.19 -4.24 599.85 -3.28 Q 599.51 -2.33 599.21 -1.57 L 599.21 -1.57 Q 598.59 0 597.41 0 L 597.41 0 Q 596.97 0 596.58 -0.28 Q 596.2 -0.56 596.2 -1.09 Z M 601.62 -8.34 L 601.62 -8.34 Q 602.45 -8.37 603.29 -8.39 Q 604.13 -8.4 604.93 -8.4 L 604.93 -8.4 Q 605.67 -8.4 606.42 -8.39 Q 607.17 -8.37 607.91 -8.34 L 607.91 -8.34 Q 607.53 -9.43 607.16 -10.51 Q 606.79 -11.59 606.47 -12.59 Q 606.14 -13.58 605.88 -14.43 Q 605.63 -15.29 605.43 -15.94 L 605.43 -15.94 Q 605.31 -16.35 605.16 -16.59 Q 605.01 -16.83 604.75 -16.83 L 604.75 -16.83 Q 604.51 -16.83 604.35 -16.57 Q 604.19 -16.3 604.07 -15.91 L 604.07 -15.91 Q 603.69 -14.64 603.03 -12.6 Q 602.37 -10.57 601.62 -8.34 Z" stroke-linecap="round" />
</g>
</g>
</g>
</svg>